<svg xmlns="http://www.w3.org/2000/svg" viewBox="0 0 32 32" fill="none">
  <defs>
    <linearGradient id="fav-bg" x1="0%" y1="0%" x2="100%" y2="100%">
      <stop offset="0%" stop-color="#a78bfa"/>
      <stop offset="38%" stop-color="#7c3aed"/>
      <stop offset="100%" stop-color="#3b0764"/>
    </linearGradient>
    <linearGradient id="fav-gold" x1="0%" y1="0%" x2="100%" y2="100%">
      <stop offset="0%" stop-color="#fde68a"/>
      <stop offset="45%" stop-color="#f59e0b"/>
      <stop offset="100%" stop-color="#b45309"/>
    </linearGradient>
    <linearGradient id="fav-glass" x1="0%" y1="0%" x2="100%" y2="100%">
      <stop offset="0%" stop-color="#ffffff" stop-opacity="0.32"/>
      <stop offset="55%" stop-color="#c4b5fd" stop-opacity="0.08"/>
      <stop offset="100%" stop-color="#ffffff" stop-opacity="0.03"/>
    </linearGradient>
    <linearGradient id="fav-top" x1="0" y1="0" x2="0" y2="1">
      <stop offset="0%" stop-color="#ffffff" stop-opacity="0.38"/>
      <stop offset="35%" stop-color="#ffffff" stop-opacity="0.06"/>
      <stop offset="100%" stop-color="#ffffff" stop-opacity="0"/>
    </linearGradient>
    <radialGradient id="fav-glow" cx="50%" cy="42%" r="58%">
      <stop offset="0%" stop-color="#ddd6fe" stop-opacity="0.45"/>
      <stop offset="70%" stop-color="#7c3aed" stop-opacity="0.12"/>
      <stop offset="100%" stop-color="#7c3aed" stop-opacity="0"/>
    </radialGradient>
    <filter id="fav-depth" x="-20%" y="-20%" width="140%" height="140%">
      <feDropShadow dx="0" dy="1.5" stdDeviation="1.2" flood-color="#000000" flood-opacity="0.45"/>
      <feDropShadow dx="0" dy="4" stdDeviation="3" flood-color="#4c1d95" flood-opacity="0.35"/>
    </filter>
  </defs>
  <rect x="1.5" y="2.5" width="29" height="29" rx="8" fill="#0c0318" opacity="0.85"/>
  <rect width="32" height="32" rx="8" fill="url(#fav-bg)" filter="url(#fav-depth)"/>
  <rect width="32" height="32" rx="8" fill="url(#fav-top)"/>
  <circle cx="16" cy="15" r="14" fill="url(#fav-glow)" opacity="0.75"/>
  <rect x="0.6" y="0.6" width="30.8" height="30.8" rx="7.6" fill="none" stroke="rgba(255,255,255,0.14)" stroke-width="0.8"/>
  <ellipse cx="12" cy="12.2" rx="3.1" ry="0.9" fill="#000000" opacity="0.28"/>
  <circle cx="12" cy="10.8" r="3" fill="url(#fav-gold)"/>
  <ellipse cx="10.8" cy="9.6" rx="1.4" ry="0.75" fill="#ffffff" opacity="0.5"/>
  <rect x="6" y="13.2" width="22" height="13.5" rx="3.4" fill="#0a0214"/>
  <rect x="5" y="11.8" width="22" height="14" rx="3.5" fill="#1b083a"/>
  <rect x="5" y="12.8" width="22" height="12.5" rx="3" fill="url(#fav-glass)" stroke="rgba(255,255,255,0.16)" stroke-width="0.7"/>
  <path d="M6 14.2h20" stroke="rgba(255,255,255,0.12)" stroke-width="0.6"/>
  <rect x="17.5" y="15.8" width="8.5" height="6.5" rx="1.4" fill="url(#fav-gold)"/>
  <rect x="17.5" y="15.8" width="8.5" height="2.2" rx="1.4" fill="#ffffff" opacity="0.18"/>
  <circle cx="21.75" cy="19" r="1.1" fill="#ffffff"/>
</svg>
